<?xml version="1.0" encoding="UTF-8"?>
<svg id="_レイヤー_1" data-name="レイヤー 1" xmlns="http://www.w3.org/2000/svg" viewBox="0 0 365.94 34.34">
  <path d="M8.03,15.23v11.77c2.81,4.28,7.96,4.28,14.43,4.28,3.89,0,8.46-.11,11.27-.29-.29.58-.72,1.73-.79,2.45-2.48.11-6.44.18-10.01.18-7.42,0-12.35,0-15.98-4.46-1.76,1.58-3.67,3.2-5.22,4.43.04.32-.07.47-.32.58l-1.4-2.66c1.73-1.15,3.85-2.81,5.69-4.39v-9.57H.4v-2.3h7.63ZM2.66,1.73c2.41,1.55,5.18,3.92,6.44,5.69l-1.91,1.62c-1.19-1.8-3.92-4.25-6.34-5.87l1.8-1.44ZM23.97,14.22h-7.45c-.18,4.64-1.15,10.37-5.11,14.65-.32-.54-1.15-1.37-1.73-1.69,4.03-4.35,4.54-10.19,4.54-14.76V3.96l1.98.47c4.68-.94,9.79-2.16,12.67-3.46l2.34,1.91c-.11.11-.14.11-.72.11-3.42,1.3-8.93,2.56-13.93,3.46v5.51h16.7v2.27h-6.88v15.26h-2.41v-15.26Z"/>
  <path d="M47.27,8.96v22.71c0,2.41-1.08,2.52-4.97,2.52-.11-.54-.4-1.44-.72-1.98.72,0,1.37.04,1.91.04,1.48,0,1.66,0,1.66-.58v-7.67h-4.86c-.29,3.6-1.04,7.42-2.66,10.33-.36-.36-1.3-.94-1.76-1.15,2.34-4.25,2.56-10.11,2.56-14.43v-9.79h8.85ZM69.22,19.33h-4.43c1.44,1.62,3.17,2.92,5.18,3.67-.47.4-1.08,1.15-1.37,1.73-.83-.36-1.62-.79-2.34-1.33-.11.14-.36.22-.68.22-.76.94-1.98,2.27-2.99,3.2,0,0-1.4-.9-1.44-.9.97-1.01,2.3-2.66,2.99-3.78l2.02,1.22v-.04c-1.48-1.04-2.77-2.41-3.85-4h-7.16c-.76,1.12-1.58,2.16-2.56,3.06,1.12,1.04,2.23,2.56,2.66,3.64l-1.69.94c-.4-.97-1.33-2.34-2.3-3.42-.79.61-1.62,1.15-2.52,1.62-.32-.47-.94-1.19-1.37-1.55,2.12-1.04,3.85-2.48,5.26-4.28h-4.39v-1.84h5.65c.54-.94,1.04-1.94,1.44-3.02h-6.01v-1.8h2.81c-.29-1.04-.97-2.52-1.73-3.6l1.8-.58c.79,1.12,1.58,2.66,1.84,3.71l-1.26.47h3.17c.43-1.4.76-2.95,1.01-4.57l.76.11v-2.38h-9.86v2.59h-2.41v-2.59h-8.71v-2.05h8.71V.79l3.13.22c-.04.25-.25.43-.72.5v2.27h9.86V.79l3.1.22c-.04.25-.22.43-.68.5v2.27h8.93v2.05h-8.93v2.56h-1.19v.04l.76.07c-.07.25-.29.4-.72.43-.22,1.3-.5,2.56-.83,3.74h4.5c-.29-.11-.54-.25-.72-.29.72-1.15,1.62-2.88,2.09-4.03l2.41.94c-.11.18-.32.29-.68.29-.47.9-1.22,2.09-1.91,3.1h4.36v1.8h-6.3c.43,1.08.94,2.09,1.55,3.02h5.79v1.84ZM40.5,18.75c0,1.01-.04,2.12-.07,3.28h4.72v-4.64h-4.64v1.37ZM45.14,10.98h-4.64v4.43h4.64v-4.43ZM48.24,30.78c2.09-.79,5.04-2.12,8.06-3.42l.4,1.69-6.91,3.28c0,.25-.14.47-.36.58l-1.19-2.12ZM59.4,28.36l1.3-1.3c2.7,1.22,6.19,3.13,8.03,4.43l-1.37,1.48c-1.76-1.3-5.18-3.28-7.96-4.57v3.74c0,1.8-.61,2.16-4.39,2.09-.11-.5-.36-1.22-.65-1.73,1.19.04,2.16.04,2.52.04.32,0,.4-.11.4-.43v-11.52l2.77.18c-.04.22-.22.4-.65.47v7.13ZM57.56,14.47c-.4,1.08-.83,2.09-1.33,3.02h4.97c-.47-.97-.9-1.98-1.26-3.02h-2.38Z"/>
  <path d="M113.58,16.56h-8.6c2.41,3.02,5.51,5.44,9.03,6.8-.54.47-1.26,1.37-1.66,2.02-2.74-1.22-5.22-3.02-7.31-5.26v1.48h-7.06c0,1.69,0,2.38-.22,3.31h11.19v2.02h-9.36c2.27,2.92,6.37,4.72,11.52,5.36-.47.47-1.04,1.37-1.37,1.98-5.79-1.01-10.15-3.38-12.53-7.34h-.11c-1.33,2.77-4.64,5.44-12.6,7.34-.25-.54-.9-1.37-1.37-1.8,6.62-1.51,9.79-3.49,11.27-5.54h-9.07v-2.02h10.08c.29-1.12.29-1.87.29-3.31h-6.37v-1.51c-1.94,2.05-4.32,3.89-7.13,5.36-.36-.61-1.12-1.4-1.69-1.76,3.71-1.84,6.59-4.32,8.82-7.13h-8.42v-2.05h9.86c.61-1.01,1.19-2.02,1.66-3.06h-7.49v-2.02h8.35c.36-1.01.68-2.02.94-3.02h-11.16v-2.02h11.63c.22-1.22.4-2.41.47-3.6l3.17.22c-.07.36-.32.54-.79.58-.11.94-.25,1.87-.4,2.81h14.54v2.02h-15.01c-.25,1.01-.54,2.02-.9,3.02h13.82v2.02h-7.74c.47,1.04,1.04,2.09,1.66,3.06h10.04v2.05ZM92.19,16.56c-.72,1.04-1.51,2.09-2.41,3.06h14.79c-.83-.94-1.62-1.98-2.34-3.06h-10.04ZM101.01,14.51c-.54-.97-1.01-2.02-1.44-3.06h-4.57c-.43,1.04-.94,2.05-1.51,3.06h7.52Z"/>
  <path d="M135.32,7.38c-.14.32-.43.58-.9.58-1.3,11.19-5.04,20.95-11.01,20.95-3.02,0-5.76-3.02-5.76-8.71,0-8.64,6.73-15.87,16.2-15.87,10.4,0,14.9,6.59,14.9,13.61,0,8.57-4.97,12.71-13.68,14.72-.32-.58-.94-1.55-1.51-2.2,8.28-1.58,12.53-5.62,12.53-12.42,0-5.94-3.82-11.34-12.24-11.34-.36,0-.76.04-1.08.07l2.56.61ZM131.87,6.91c-7.27.9-11.77,6.91-11.77,13.21,0,3.85,1.66,6.26,3.38,6.26,4.36,0,7.49-9.61,8.39-19.47Z"/>
  <path d="M162.86,17.49c-1.66,4.21-4.03,7.99-6.8,10.69l-2.09-1.37c2.59-2.48,5.08-5.94,6.52-10.19l2.38.86ZM170.53,11.88v17.13c0,4.03-3.17,4-8.53,3.92-.14-.65-.43-1.66-.79-2.38.83.04,4.86,0,5.26,0,1.01,0,1.48-.65,1.48-1.51V11.88h-12.24v-2.41h12.24V2.09l3.42.18c-.04.36-.29.65-.83.68v6.52h12.17v2.41h-12.17ZM176.97,16.41c2.63,2.92,5.65,7.13,7.6,10.47l-2.3,1.33c-1.76-3.31-4.93-7.92-7.34-10.65l2.05-1.15Z"/>
  <path d="M190.01,15.62h30.06v2.56h-28.69c-.22.36-.68.61-1.15.68l-.22-3.24Z"/>
  <path d="M254.55,32.25c-.54-1.22-1.19-2.52-1.91-3.82-7.49.79-19.8,1.55-25.3,1.83-.11.36-.36.65-.68.72l-.97-3.24c1.08-.04,2.38-.07,3.78-.14,2.38-6.91,5.8-17.67,7.78-24.87l3.49.94c-.14.32-.5.5-1.04.5-1.98,6.62-5.08,16.27-7.56,23.32,5.98-.25,14.51-.86,19.26-1.3-1.87-3.1-4.25-6.37-6.41-8.78l2.16-1.22c3.78,4.14,8.1,10.98,9.94,14.9l-2.52,1.15Z"/>
  <path d="M260.39,19.62c2.74-2.88,8.42-9.21,10.47-11.41.94-.94,1.87-1.37,2.81-1.37s1.94.5,2.92,1.37c4.64,4.25,12.13,12.56,17.57,19.62l-2.16,1.98c-5.11-7.09-12.63-15.62-16.67-19.37-.61-.58-1.08-.9-1.55-.9s-.9.36-1.48.9c-1.69,1.84-6.95,7.88-9.36,10.47.04.07.04.18.04.25,0,.29-.14.58-.36.76l-2.23-2.3ZM287.67,1.37c2.2,0,4,1.8,4,4.03s-1.8,4.03-4,4.03-4.07-1.8-4.07-4.03,1.87-4.03,4.07-4.03ZM290.48,5.4c0-1.58-1.26-2.88-2.81-2.88s-2.88,1.3-2.88,2.88,1.3,2.84,2.88,2.84,2.81-1.37,2.81-2.84Z"/>
  <path d="M298.01,15.62h30.06v2.56h-28.69c-.22.36-.68.61-1.15.68l-.22-3.24Z"/>
  <path d="M335.45,12.31c3.24.72,7.27,2.09,9.68,3.24l-1.08,2.27c-2.38-1.15-6.51-2.59-9.68-3.31l1.08-2.2ZM337.61,29.91c11.55-3.89,19.73-10.22,24.48-20.95.54.47,1.62,1.26,2.2,1.62-4.82,10.62-13.35,17.39-24.22,21.24.11.32-.11.76-.4.9l-2.05-2.81ZM339.41,3.38c3.24.86,7.2,2.3,9.65,3.53l-1.19,2.2c-2.56-1.3-6.3-2.74-9.54-3.64l1.08-2.09ZM356.25,2.2c1.48,1.26,3.53,3.49,4.64,5.22l-1.4,1.04c-1.01-1.55-3.1-3.96-4.57-5.26l1.33-1.01ZM361.26,0c1.48,1.26,3.53,3.53,4.68,5.18l-1.4,1.04c-1.08-1.58-3.09-3.89-4.57-5.18l1.3-1.04Z"/>
</svg>