<?xml version="1.0" encoding="UTF-8"?>
<svg id="_レイヤー_1" data-name="レイヤー 1" xmlns="http://www.w3.org/2000/svg" viewBox="0 0 438.37 70">
  <defs>
    <style>
      .cls-1 {
        fill: red;
      }

      .cls-2 {
        fill: #f2f2f2;
      }
    </style>
  </defs>
  <g>
    <rect width="4.79" height="70"/>
    <polygon points="57 26.15 77.05 0 71.99 .09 30.95 0 25.89 .09 6.28 26.59 26.94 70 32.95 70 11.13 26.63 52.38 26.63 52.39 26.61 73.04 70 79.05 70 57 26.15"/>
    <polygon class="cls-1" points="42.06 26.15 64.11 70 58.1 70 37.44 26.59 42.06 26.15"/>
    <polygon points="48.22 70 37.19 48.08 38.84 48.08 27.82 26.15 26.24 26.3 26.17 26.15 22.13 26.53 21.94 26.15 19.63 26.37 29.96 48.08 31.77 48.08 42.2 70 48.22 70"/>
    <polygon points="64.09 70 53.06 48.08 54.72 48.08 43.69 26.15 42.11 26.3 42.04 26.15 38 26.53 37.81 26.15 35.5 26.37 45.83 48.08 47.64 48.08 58.08 70 64.09 70"/>
  </g>
  <g>
    <path d="M159.53,55.26h-22.7c-2.4,0-4.47-.34-6.22-1.01-1.74-.67-3.21-1.57-4.39-2.69-.58.71-1.37,1.48-2.38,2.33-1.01.85-2.23,1.75-3.67,2.71l-3.02-4.37c1.34-.86,2.44-1.62,3.29-2.26.85-.64,1.52-1.17,2.02-1.58.5-.42.84-.74,1.03-.96l.24-.29v-11.76h-5.86v-4.32h10.51v16.08c.45.58.9,1.1,1.37,1.58.46.48,1.02.88,1.66,1.2.64.32,1.42.57,2.33.74.91.18,2.01.26,3.29.26h23.47l-.96,4.32ZM124.2,24.82l-.48-.72c-.32-.48-.76-1.09-1.32-1.82-.56-.74-1.2-1.55-1.92-2.45-.72-.9-1.46-1.78-2.23-2.64l3.84-2.98c.8.93,1.57,1.85,2.3,2.76.74.91,1.38,1.74,1.92,2.47.54.74.99,1.33,1.34,1.78l.48.67-3.94,2.93ZM151.94,30.06v18.72h-4.66v-18.72h-8.64c-.16,3.1-.58,6.14-1.27,9.1-.69,2.96-1.93,5.9-3.72,8.81l-3.94-3.89c1.22-1.5,2.13-3.16,2.74-4.97.61-1.81,1.03-3.87,1.27-6.19.24-2.32.37-4.94.38-7.87.02-2.93.02-6.23.02-9.91h1.15c.77.03,1.78.05,3.02.05s2.68-.02,4.3-.05c1.62-.03,3.26-.1,4.92-.19,1.66-.1,3.3-.23,4.9-.41,1.6-.18,3.02-.41,4.27-.7l2.4,4.22c-1.41.29-3.03.53-4.87.72-1.84.19-3.64.34-5.4.43-1.76.1-3.42.17-4.97.22-1.55.05-2.78.07-3.67.07h-1.39v6.24h21.17v4.32h-8.02Z"/>
    <path d="M180.05,52.76c-.18.7-.48,1.27-.91,1.7-.43.43-1.03.76-1.8.98-.77.22-1.76.4-2.98.53l-1.92-4.32c.83,0,1.49-.02,1.97-.07s.85-.15,1.1-.31c.26-.16.42-.4.5-.72.08-.32.12-.75.12-1.3v-5.52h-4.42c0,1.03-.06,2.14-.17,3.34-.11,1.2-.3,2.39-.55,3.58-.26,1.18-.58,2.3-.96,3.34-.38,1.04-.85,1.91-1.39,2.62l-3.36-3.84c.9-1.5,1.5-3.42,1.8-5.76.3-2.34.46-4.96.46-7.87v-15.89h12.77v26.83c0,1.09-.09,1.98-.26,2.69ZM196.58,20.07v2.11h-4.7v-2.11h-9.98v2.11h-4.7v-2.11h-11.23v-3.94h11.23v-2.74h4.7v2.74h9.98v-2.74h4.7v2.74h10.75v3.94h-10.75ZM176.14,27.08h-4.37v4.8h4.37v-4.8ZM176.14,35.24h-4.37v5.14h4.37v-5.14ZM205.94,43.88c-.26-.16-.53-.34-.82-.55-.29-.21-.54-.39-.77-.55-.35.35-.85.87-1.49,1.56-.64.69-1.42,1.4-2.35,2.14l-2.64-2.69c1.02-.7,1.84-1.38,2.45-2.02.61-.64,1.02-1.1,1.25-1.39-.51-.48-1.01-1-1.49-1.56-.48-.56-.9-1.08-1.25-1.56h-7.39c-.45.54-.97,1.12-1.56,1.73-.59.61-1.16,1.12-1.7,1.54.48.45.99.98,1.54,1.58.54.61,1.04,1.2,1.49,1.78l-3.07,2.45c-.54-.77-1.09-1.48-1.63-2.14-.54-.66-1.01-1.16-1.39-1.51-.29.19-.62.38-.98.58-.37.19-.74.37-1.13.53l-2.5-3.5c1.31-.29,2.48-.72,3.5-1.3,1.02-.58,1.84-1.15,2.45-1.73h-5.14v-3.36h7.63c.32-.45.6-.97.84-1.56.24-.59.44-1.11.6-1.56h-7.68v-3.12h2.74c-.22-.48-.49-.96-.79-1.44-.3-.48-.54-.85-.72-1.1-.18-.26-.28-.4-.31-.43l4.13-1.2c.03.06.15.28.36.65.21.37.47.89.79,1.56.32.67.61,1.33.86,1.97h1.63c.35-1.38.54-2.56.58-3.55v-1.44l4.56.48-.05,1.25c-.06.86-.26,1.97-.58,3.31h1.73c.45-.64.85-1.3,1.2-1.99.35-.69.61-1.22.77-1.58.16-.37.26-.58.29-.65l4.22,1.2-.43.86c-.29.61-.69,1.33-1.2,2.16h2.98v3.07h-5.57c.13.35.31.84.55,1.46.24.62.54,1.18.89,1.66h6.34v3.36h-4.42c.54.48,1.3,1.02,2.26,1.61.96.59,1.94,1.08,2.93,1.46l-2.5,3.55ZM190.2,50.31c-.42.29-1,.64-1.75,1.06-.75.42-1.63.88-2.64,1.39-1.01.51-2.1.99-3.29,1.44l-1.63-3.7c1.31-.42,2.52-.86,3.62-1.34,1.1-.48,2.06-.93,2.88-1.34s1.46-.77,1.94-1.06l.67-.38.82,3.55-.62.38ZM196.34,53.55c-.22.75-.6,1.36-1.13,1.82-.53.46-1.22.78-2.06.96-.85.18-1.9.26-3.14.26l-1.63-4.22c.96,0,1.7-.02,2.23-.07.53-.05.91-.14,1.15-.29.24-.14.38-.34.43-.58.05-.24.07-.55.07-.94v-10.99h4.42v11.18c0,1.15-.11,2.1-.34,2.86ZM196.1,32.19c-.22-.59-.38-1.06-.48-1.42h-.91c-.13.42-.3.93-.5,1.54-.21.61-.42,1.14-.65,1.58h3.36c-.32-.54-.59-1.11-.82-1.7ZM205.32,54.78l-.58-.48c-.42-.32-.98-.74-1.68-1.25-.7-.51-1.54-1.07-2.52-1.68-.98-.61-2.04-1.2-3.19-1.78l1.97-3.17c1.25.61,2.38,1.2,3.41,1.78,1.02.58,1.9,1.09,2.64,1.54s1.31.8,1.73,1.06l.62.43-2.4,3.55Z"/>
    <path d="M247.13,32.94c1.38,1.15,2.82,2.18,4.34,3.07,1.52.9,3.19,1.68,5.02,2.35l-2.59,4.03c-2.72-1.22-5.07-2.66-7.06-4.34-1.99-1.68-3.7-3.38-5.14-5.11h-12.53c-.45.51-.96,1.05-1.54,1.61-.58.56-1.06,1.02-1.44,1.37h17.71v3.65h-6.43c0,1.02-.19,2.3-.58,3.84h15.22v3.65h-12.29c.51.51,1.24,1.05,2.18,1.61.94.56,2.05,1.07,3.31,1.54,1.26.46,2.66.86,4.2,1.2s3.15.55,4.85.65l-1.73,4.56c-2.72-.32-5.08-.86-7.08-1.61-2-.75-3.71-1.59-5.14-2.52-1.42-.93-2.58-1.84-3.46-2.74-.88-.9-1.54-1.65-1.99-2.26-.67.96-1.51,1.91-2.52,2.86-1.01.94-2.23,1.83-3.67,2.66-1.44.83-3.11,1.56-5.02,2.18-1.9.62-4.07,1.1-6.5,1.42l-1.87-4.51c3.49-.32,6.52-.9,9.1-1.75,2.58-.85,4.42-1.94,5.54-3.29h-12.14v-3.65h14.06c.26-.74.45-1.44.58-2.11s.21-1.25.24-1.73h-7.2v-3.12c-.58.58-1.26,1.16-2.04,1.75-.78.59-1.61,1.18-2.47,1.75-.86.58-1.74,1.11-2.64,1.61-.9.5-1.73.94-2.5,1.32l-2.64-4.37c1.12-.42,2.14-.83,3.05-1.25.91-.42,1.77-.85,2.57-1.3.8-.45,1.55-.92,2.26-1.42.7-.5,1.41-1.03,2.11-1.61h-9.98v-3.7h13.25c.42-.48.84-1.05,1.27-1.7.43-.66.79-1.29,1.08-1.9h-11.14v-3.5h12.62c.16-.35.32-.82.48-1.42.16-.59.27-1.1.34-1.51h-14.98v-3.55h15.65l.14-2.26h4.7l-.14,2.26h16.99v3.55h-17.47c-.06.45-.17.96-.31,1.54-.14.58-.28,1.04-.41,1.39h16.66v3.5h-10.08c.26.54.58,1.12.96,1.73.38.61.82,1.23,1.3,1.87h12.34v3.7h-9.41ZM237.84,27.44c-.37-.62-.68-1.22-.94-1.8h-2.74c-.26.61-.61,1.26-1.06,1.97-.45.7-.82,1.25-1.1,1.63h6.91c-.35-.58-.71-1.18-1.08-1.8Z"/>
  </g>
  <path d="M276.7,36.08c0-11.04,6.62-19.92,18.48-19.92s18.48,8.88,18.48,19.92-6.62,19.87-18.48,19.87-18.48-8.83-18.48-19.87ZM310.07,35.65c0-10.46-5.86-17.28-14.83-17.28s-14.93,7.06-14.93,18,5.86,17.28,14.83,17.28,14.93-7.06,14.93-18Z"/>
  <path d="M322.64,30.66c-1.15,0-3.02,0-4.42.1h-.14c-.24,0-.34-.1-.34-.24,0-.05.05-.14.05-.24.05-.19.1-.38.1-.62s-.05-.48-.1-.62c-.05-.1-.05-.19-.05-.29,0-.14.1-.24.38-.24h.1c1.1.1,2.35.14,3.41.14h1.01v-1.3c0-10.08,3.84-13.3,10.56-13.3.14,0,.38,0,.38.38v.19c-.05.24-.05.58-.05.86,0,.38,0,.82.1,1.2v.19c0,.29-.1.38-.29.38-.05,0-.1-.05-.14-.05-.96-.48-1.87-.67-2.69-.67-3.07,0-4.85,3.02-4.85,6.48v5.57c4.32,0,4.85,0,6-.1h.1c.29,0,.38.14.38.29,0,.1-.05.19-.05.29,0,.14-.05.34-.05.58,0,.19.05.38.05.58,0,.1.05.19.05.29,0,.14-.1.24-.38.24h-.1c-1.82-.1-4.8-.1-6-.1v13.2c0,3.5.05,6.34.19,10.66,0,.29,0,.67-.34.67-.1,0-.19-.05-.34-.1-.14-.05-.67-.1-1.15-.1-.38,0-.77.05-.91.1-.14.1-.24.1-.34.1-.24,0-.29-.24-.29-.58.14-3.98.14-7.44.14-10.8v-13.15Z"/>
  <path d="M340.3,30.66c-1.15,0-3.02,0-4.42.1h-.14c-.24,0-.34-.1-.34-.24,0-.05.05-.14.05-.24.05-.19.1-.38.1-.62s-.05-.48-.1-.62c-.05-.1-.05-.19-.05-.29,0-.14.1-.24.38-.24h.1c1.1.1,2.35.14,3.41.14h1.01v-1.3c0-10.08,3.84-13.3,10.56-13.3.14,0,.38,0,.38.38v.19c-.05.24-.05.58-.05.86,0,.38,0,.82.1,1.2v.19c0,.29-.1.38-.29.38-.05,0-.1-.05-.14-.05-.96-.48-1.87-.67-2.69-.67-3.07,0-4.85,3.02-4.85,6.48v5.57c4.32,0,4.85,0,6-.1h.1c.29,0,.38.14.38.29,0,.1-.05.19-.05.29,0,.14-.05.34-.05.58,0,.19.05.38.05.58,0,.1.05.19.05.29,0,.14-.1.24-.38.24h-.1c-1.82-.1-4.8-.1-6-.1v13.2c0,3.5.05,6.34.19,10.66,0,.29,0,.67-.34.67-.1,0-.19-.05-.34-.1-.14-.05-.67-.1-1.15-.1-.38,0-.77.05-.91.1-.14.1-.24.1-.34.1-.24,0-.29-.24-.29-.58.14-3.98.14-7.44.14-10.8v-13.15Z"/>
  <path class="cls-2" d="M354.37,18.42c0-1.34,1.15-2.5,2.5-2.5s2.5,1.15,2.5,2.5-1.15,2.54-2.5,2.54-2.5-1.15-2.5-2.54Z"/>
  <path class="cls-2" d="M355.38,37.62c0-2.21,0-5.9-.14-8.64,0-.34,0-.53.29-.53.05,0,.1.05.19.05h.1c.43,0,1.68-.19,2.11-.38.1-.05.19-.1.29-.1.14,0,.24.19.24.48v.14c-.1,1.97-.1,2.98-.1,8.78v6.91c0,2.74,0,6.86.1,10.18,0,.29,0,.67-.34.67-.1,0-.19-.05-.34-.1-.14-.05-.62-.1-1.06-.1-.34,0-.67.05-.82.1-.14.1-.24.1-.34.1-.24,0-.29-.24-.29-.58.1-3.02.1-7.58.1-10.32v-6.67Z"/>
  <path d="M379.57,55.91c-9.31,0-14.16-6.53-14.16-13.68s4.94-14.26,14.45-14.26c3.55,0,7.92,1.3,7.92,2.21,0,.14-.05.24-.1.38-.19.53-.24,1.44-.24,2.21,0,.34-.1.48-.24.48-.1,0-.24-.1-.34-.24-1.34-1.49-3.65-3.12-6.96-3.12-7.92,0-11.04,5.66-11.04,12.19s4.46,11.66,10.75,11.66c4.42,0,6.82-2.35,8.06-3.84.1-.1.19-.19.34-.19.1,0,.19.1.19.43,0,.77.1,1.78.29,2.35.05.1.05.14.05.24,0,1.2-5.42,3.17-8.98,3.17Z"/>
  <path d="M393.77,18.42c0-1.34,1.15-2.5,2.5-2.5s2.5,1.15,2.5,2.5-1.15,2.54-2.5,2.54-2.5-1.15-2.5-2.54ZM394.78,37.62c0-2.21,0-5.9-.14-8.64,0-.34,0-.53.29-.53.05,0,.1.05.19.05h.1c.43,0,1.68-.19,2.11-.38.1-.05.19-.1.29-.1.14,0,.24.19.24.48v.14c-.1,1.97-.1,2.98-.1,8.78v6.91c0,2.74,0,6.86.1,10.18,0,.29,0,.67-.34.67-.1,0-.19-.05-.34-.1-.14-.05-.62-.1-1.06-.1-.34,0-.67.05-.82.1-.14.1-.24.1-.34.1-.24,0-.29-.24-.29-.58.1-3.02.1-7.58.1-10.32v-6.67Z"/>
  <path d="M428.91,52.55c.24,0,.48.67.48,1.2,0,1.06-2.11,1.58-3.26,1.58-2.02,0-3.22-1.63-3.31-3.07-2.21,1.97-5.62,3.65-10.27,3.65s-8.11-2.98-8.11-7.34c0-5.18,3.5-8.07,10.61-9.22,2.83-.43,6.24-.67,7.82-.82v-.53c0-4.8-1.73-7.97-6.82-7.97-4.13,0-7.25,2.64-8.54,4.27-.14.19-.24.24-.34.24-.14,0-.24-.1-.24-.38,0-.77,0-1.63-.29-2.21-.1-.19-.14-.34-.14-.43,0-.67,4.99-3.55,9.46-3.55,6.05,0,9.75,3.17,9.75,9.46v13.44c0,1.63.62,2.06,1.39,2.06.58,0,1.25-.24,1.78-.38h.05ZM422.82,40.55c-1.49.05-4.08.29-6.53.67-6.48,1.06-8.74,3.41-8.74,6.96s2.26,5.42,6.62,5.42c3.79,0,8.64-2.88,8.64-4.56v-8.5Z"/>
  <path d="M435.29,25.95c0-2.88,0-6.62-.19-10.56,0-.34.05-.53.34-.53.05,0,.1.05.19.05h.14c.43,0,1.58-.14,2.02-.34.1-.05.19-.1.29-.1.19,0,.29.24.29.58-.14,3.84-.14,7.58-.14,10.7v17.62c0,2.98,0,6.91.14,11.14,0,.29-.05.67-.38.67-.1,0-.19-.05-.34-.1-.14-.05-.62-.1-1.06-.1-.34,0-.67.05-.82.1-.14.1-.24.1-.34.1-.24,0-.29-.24-.29-.58.05-4.27.14-8.4.14-11.28v-17.38Z"/>
</svg>