<?xml version="1.0" encoding="UTF-8"?>
<svg id="_レイヤー_1" data-name="レイヤー 1" xmlns="http://www.w3.org/2000/svg" viewBox="0 0 493.87 70">
  <defs>
    <style>
      .cls-1 {
        fill: red;
      }
    </style>
  </defs>
  <g>
    <rect width="4.79" height="70"/>
    <polygon points="57 26.15 77.05 0 71.99 .09 30.95 0 25.89 .09 6.28 26.59 26.94 70 32.95 70 11.13 26.63 52.38 26.63 52.39 26.61 73.04 70 79.05 70 57 26.15"/>
    <polygon class="cls-1" points="42.06 26.15 64.11 70 58.1 70 37.44 26.59 42.06 26.15"/>
    <polygon points="48.22 70 37.19 48.08 38.84 48.08 27.82 26.15 26.24 26.3 26.17 26.15 22.13 26.53 21.94 26.15 19.63 26.37 29.96 48.08 31.77 48.08 42.2 70 48.22 70"/>
    <polygon points="64.09 70 53.06 48.08 54.72 48.08 43.69 26.15 42.11 26.3 42.04 26.15 38 26.53 37.81 26.15 35.5 26.37 45.83 48.08 47.64 48.08 58.08 70 64.09 70"/>
  </g>
  <g>
    <path d="M85,63.07V6.86h3.85v56.21h-3.85ZM106.63,63.07l-16.59-34.86,15.75-21.28,4.06-.07-16.1,21,17.71,35.21h-4.83Z"/>
    <path d="M145.2,35c0,5.37-.37,9.91-1.12,13.62-.75,3.71-1.75,6.7-3.01,8.96-1.26,2.26-2.72,3.9-4.38,4.9-1.66,1-3.4,1.5-5.21,1.5s-3.63-.5-5.29-1.5c-1.66-1-3.12-2.64-4.38-4.9-1.26-2.26-2.25-5.25-2.98-8.96-.72-3.71-1.08-8.25-1.08-13.62s.36-9.6,1.08-13.27c.72-3.66,1.71-6.66,2.98-8.99,1.26-2.33,2.72-4.04,4.38-5.11,1.66-1.07,3.42-1.61,5.29-1.61,1.96,0,3.78.54,5.46,1.61,1.68,1.07,3.13,2.78,4.34,5.11,1.21,2.33,2.17,5.33,2.87,8.99.7,3.66,1.05,8.08,1.05,13.27ZM141.07,34.93c0-4.71-.26-8.75-.77-12.11-.51-3.36-1.2-6.1-2.06-8.22-.86-2.12-1.88-3.68-3.04-4.66-1.17-.98-2.4-1.47-3.71-1.47s-2.54.47-3.71,1.4c-1.17.93-2.18,2.45-3.05,4.55-.86,2.1-1.55,4.83-2.06,8.19-.51,3.36-.77,7.47-.77,12.32s.25,8.75.74,12.11c.49,3.36,1.15,6.1,1.99,8.23.84,2.12,1.84,3.67,3.01,4.65,1.17.98,2.45,1.47,3.85,1.47s2.68-.47,3.85-1.4c1.17-.93,2.17-2.45,3.01-4.55.84-2.1,1.5-4.83,2-8.19.49-3.36.73-7.47.73-12.32Z"/>
    <path d="M175.51,63.07l-18.48-47.88.21,47.88h-3.08V6.86h3.29l18.41,47.46-.21-47.46h3.15v56.21h-3.29Z"/>
    <path d="M189.16,63.07V6.86h10.15c2.71,0,5.08.81,7.11,2.42,2.03,1.61,3.72,3.73,5.08,6.37,1.35,2.64,2.36,5.63,3.01,9,.65,3.36.98,6.8.98,10.32s-.34,6.97-1.01,10.33c-.68,3.36-1.68,6.36-3.01,9-1.33,2.64-3,4.76-5,6.37-2.01,1.61-4.32,2.42-6.93,2.42h-10.36ZM204.42,58.1c1.54-1.45,2.83-3.36,3.88-5.74s1.84-5.1,2.38-8.16c.54-3.06.81-6.16.81-9.31s-.26-6.25-.77-9.31c-.51-3.06-1.28-5.77-2.31-8.15-1.03-2.38-2.33-4.29-3.92-5.74-1.59-1.45-3.45-2.17-5.6-2.17h-5.81v50.75h5.95c2.05,0,3.85-.72,5.39-2.17Z"/>
    <path d="M250.2,35c0,5.37-.37,9.91-1.12,13.62-.75,3.71-1.75,6.7-3.01,8.96-1.26,2.26-2.72,3.9-4.38,4.9-1.66,1-3.39,1.5-5.21,1.5s-3.63-.5-5.29-1.5c-1.66-1-3.11-2.64-4.38-4.9-1.26-2.26-2.25-5.25-2.97-8.96-.72-3.71-1.08-8.25-1.08-13.62s.36-9.6,1.08-13.27c.72-3.66,1.71-6.66,2.97-8.99,1.26-2.33,2.72-4.04,4.38-5.11,1.66-1.07,3.42-1.61,5.29-1.61,1.96,0,3.78.54,5.46,1.61,1.68,1.07,3.13,2.78,4.34,5.11,1.21,2.33,2.17,5.33,2.87,8.99.7,3.66,1.05,8.08,1.05,13.27ZM246.07,34.93c0-4.71-.26-8.75-.77-12.11-.51-3.36-1.2-6.1-2.07-8.22-.86-2.12-1.88-3.68-3.04-4.66-1.17-.98-2.4-1.47-3.71-1.47s-2.54.47-3.71,1.4c-1.17.93-2.18,2.45-3.04,4.55-.86,2.1-1.55,4.83-2.06,8.19-.51,3.36-.77,7.47-.77,12.32s.25,8.75.74,12.11c.49,3.36,1.16,6.1,2,8.23.84,2.12,1.84,3.67,3.01,4.65,1.17.98,2.45,1.47,3.85,1.47s2.68-.47,3.85-1.4c1.17-.93,2.17-2.45,3.01-4.55.84-2.1,1.5-4.83,2-8.19.49-3.36.73-7.47.73-12.32Z"/>
    <path d="M295,63.07V6.86h3.85v56.21h-3.85ZM316.63,63.07l-16.59-34.86,15.75-21.28,4.06-.07-16.1,21,17.71,35.21h-4.83Z"/>
    <path d="M352.26,63.07l-5.46-24.36h-11.83l-5.53,24.36h-3.15l13.16-56.21h3.57l13.65,56.21h-4.41ZM340.92,12.53l-5.25,23.17h10.5l-5.25-23.17Z"/>
    <path d="M385.51,63.07l-18.48-47.88.21,47.88h-3.08V6.86h3.29l18.41,47.46-.21-47.46h3.15v56.21h-3.29Z"/>
    <path d="M422.26,63.07l-5.46-24.36h-11.83l-5.53,24.36h-3.15l13.16-56.21h3.57l13.65,56.21h-4.41ZM410.92,12.53l-5.25,23.17h10.5l-5.25-23.17Z"/>
    <path d="M434.16,63.07V6.86h10.15c2.71,0,5.08.81,7.11,2.42,2.03,1.61,3.72,3.73,5.08,6.37,1.35,2.64,2.36,5.63,3.01,9,.65,3.36.98,6.8.98,10.32s-.34,6.97-1.01,10.33c-.68,3.36-1.68,6.36-3.01,9-1.33,2.64-3,4.76-5,6.37-2.01,1.61-4.32,2.42-6.93,2.42h-10.36ZM449.42,58.1c1.54-1.45,2.83-3.36,3.88-5.74s1.84-5.1,2.38-8.16c.54-3.06.81-6.16.81-9.31s-.26-6.25-.77-9.31c-.51-3.06-1.28-5.77-2.31-8.15-1.03-2.38-2.33-4.29-3.92-5.74-1.59-1.45-3.45-2.17-5.6-2.17h-5.81v50.75h5.95c2.05,0,3.85-.72,5.39-2.17Z"/>
    <path d="M470.84,63.07V6.93h23.03v3.01h-19.04v19.39h13.86v3.01h-13.86v27.72h19.04v3.01h-23.03Z"/>
  </g>
</svg>