<?xml version="1.0" encoding="UTF-8"?>
<svg id="_レイヤー_1" data-name="レイヤー 1" xmlns="http://www.w3.org/2000/svg" viewBox="0 0 413.79 70">
  <defs>
    <style>
      .cls-1 {
        fill: red;
      }
    </style>
  </defs>
  <g>
    <rect width="4.79" height="70"/>
    <polygon points="57 26.15 77.05 0 71.99 .09 30.95 0 25.89 .09 6.28 26.59 26.94 70 32.95 70 11.13 26.63 52.38 26.63 52.39 26.61 73.04 70 79.05 70 57 26.15"/>
    <polygon class="cls-1" points="42.06 26.15 64.11 70 58.1 70 37.44 26.59 42.06 26.15"/>
    <polygon points="48.22 70 37.19 48.08 38.84 48.08 27.82 26.15 26.24 26.3 26.17 26.15 22.13 26.53 21.94 26.15 19.63 26.37 29.96 48.08 31.77 48.08 42.2 70 48.22 70"/>
    <polygon points="64.09 70 53.06 48.08 54.72 48.08 43.69 26.15 42.11 26.3 42.04 26.15 38 26.53 37.81 26.15 35.5 26.37 45.83 48.08 47.64 48.08 58.08 70 64.09 70"/>
  </g>
  <g>
    <path d="M144.76,50.74c.19,0,.33.09.42.26.09.17.14.35.14.54,0,.16-.04.31-.12.47-.08.16-.2.25-.35.28-.37.09-.71.3-1.01.61-.3.31-.52.64-.68.98-.09.19-.2.3-.33.35-.13.05-.28.07-.47.07-1.5.09-3.32.21-5.47.35-2.15.14-4.4.21-6.74.21-2.15,0-4.01-.06-5.57-.19-1.56-.12-2.9-.29-4.02-.49-1.12-.2-2.05-.42-2.78-.65s-1.33-.44-1.8-.63c-.62-.28-1.24-.65-1.85-1.1-.61-.45-1.17-.95-1.68-1.5-.51-.54-.98-1.12-1.38-1.73-.41-.61-.72-1.22-.94-1.85-.34.41-.7.8-1.08,1.19-.37.39-.73.79-1.08,1.19-.62.65-1.25,1.29-1.87,1.92-.62.62-1.2,1.29-1.73,2.01v.56c0,1.06-.2,1.59-.61,1.59-.19,0-.43-.13-.73-.4-.3-.27-.59-.61-.89-1.03-.3-.42-.58-.87-.84-1.36-.27-.48-.46-.94-.59-1.38.56-.19,1.3-.55,2.22-1.1.92-.54,1.81-1.12,2.67-1.73.86-.61,1.61-1.16,2.25-1.66.64-.5.96-.76.96-.8v-12.16h-2.1c-.34,0-.96.02-1.85.07s-1.74.13-2.55.26c-.25-.25-.45-.61-.61-1.07-.16-.47-.25-.92-.28-1.36.44.06.94.12,1.52.16.58.05,1.15.09,1.71.14.56.05,1.05.08,1.47.09.42.02.68.02.77.02h1.64c.28-.4.56-.75.84-1.03s.5-.42.65-.42c.12,0,.22.03.28.09.09.06.28.19.56.37.28.19.56.4.84.63.28.23.53.48.75.72.22.25.33.47.33.65,0,.25-.13.47-.37.65-.25.19-.55.34-.89.47v10.67c0,.06.05.34.14.84.09.5.33,1.08.73,1.75.39.67.97,1.34,1.73,2.01.76.67,1.82,1.19,3.16,1.57,1.18.34,2.71.6,4.58.77,1.87.17,3.93.26,6.18.26,1.31,0,2.68-.03,4.12-.09,1.43-.06,2.87-.14,4.3-.23,1.43-.09,2.85-.21,4.26-.35,1.4-.14,2.73-.3,3.98-.49h.05ZM111.68,23.75c-.53,0-1.06-.42-1.59-1.26-.81-1.31-1.69-2.45-2.64-3.42-.95-.97-2.11-1.86-3.49-2.67-.13-.09-.19-.22-.19-.37,0-.19.09-.37.28-.56.19-.19.39-.28.61-.28.06,0,.28.08.65.23s.84.37,1.4.63c.56.27,1.16.58,1.8.94.64.36,1.25.74,1.82,1.15.58.41,1.08.84,1.52,1.29.44.45.72.91.84,1.38.06.19.11.37.14.54.03.17.05.35.05.54,0,.44-.09.86-.28,1.26s-.5.61-.94.61ZM130.35,48.68c0-.19.02-.45.05-.79.03-.34.06-.78.09-1.31,0-.28,0-.64.02-1.08.02-.44.03-.9.05-1.38.02-.48.02-.94.02-1.38v-13.8h-8.52c-.09,2.53-.32,4.72-.68,6.57-.36,1.86-.83,3.51-1.4,4.96-.58,1.45-1.26,2.77-2.04,3.95-.78,1.19-1.64,2.36-2.57,3.51-.09.12-.22.19-.37.19-.22,0-.44-.1-.65-.3s-.33-.43-.33-.68c0-.06.03-.16.09-.28.87-1.37,1.64-2.71,2.29-4.02.65-1.31,1.19-2.74,1.61-4.28.42-1.54.73-3.26.94-5.15.2-1.89.3-4.08.3-6.57,0-2.06-.02-3.89-.07-5.5-.05-1.61-.18-2.95-.4-4.05.69.19,1.29.4,1.8.65s1.02.55,1.52.89c.34-.06.88-.17,1.61-.33.73-.15,1.57-.34,2.5-.56.94-.22,1.93-.46,2.97-.73,1.04-.26,2.04-.55,2.99-.87.95-.31,1.83-.64,2.62-.98.8-.34,1.41-.69,1.85-1.03,1.37.81,2.33,1.44,2.88,1.87.55.44.82.86.82,1.26,0,.25-.09.43-.26.54-.17.11-.34.18-.49.21-.06.03-.17.05-.33.05-.25,0-.53-.06-.84-.19-.31-.12-.65-.26-1.03-.42-1.62.37-3.1.7-4.44.98-1.34.28-2.61.53-3.81.75-1.2.22-2.36.41-3.49.58-1.12.17-2.29.34-3.51.49,0,.47,0,.89-.02,1.26-.02.37-.02.73-.02,1.08s0,.71.02,1.1c.02.39.02.85.02,1.38v.98c0,.31-.02.64-.05.98h15.35c.44-.56.8-1.01,1.08-1.33.28-.33.51-.58.68-.75.17-.17.3-.27.4-.3.09-.03.17-.05.23-.05.12,0,.4.12.84.37.44.25.89.55,1.36.89.47.34.89.7,1.26,1.08s.56.69.56.94c0,.22-.1.41-.3.59-.2.17-.51.26-.91.26h-9.22v14.13c0,.37,0,.77.02,1.19.02.42.02.82.02,1.19v.94c.03.53.05.97.07,1.31.02.34.02.61.02.8,0,.44-.17.73-.51.89-.34.16-.67.25-.98.28-.06,0-.14,0-.23.02-.09.02-.19.02-.28.02-.28,0-.55-.06-.82-.19-.27-.12-.4-.39-.4-.8v-.05Z"/>
    <path d="M182.14,37.64c1.34,1.59,2.82,2.98,4.44,4.16,1.62,1.19,3.21,2.01,4.77,2.48.22.03.33.2.33.52,0,.19-.05.38-.16.59-.11.2-.24.3-.4.3-.25,0-.57.07-.96.21-.39.14-.71.32-.96.54-.16.16-.33.23-.51.23-.06,0-.43-.19-1.1-.56-.67-.37-1.64-1.15-2.92-2.34-.16.06-.34.12-.54.19-.2.06-.43.09-.68.09h-.23c-.44.44-.97.94-1.61,1.5-.64.56-1.32,1.09-2.04,1.59,1.9.59,3.42,1.17,4.54,1.73s1.99,1.08,2.6,1.57,1.01.93,1.19,1.33c.19.4.28.76.28,1.07,0,.44-.11.76-.33.98-.22.22-.45.33-.7.33-.44,0-.92-.28-1.45-.84-.5-.56-1.12-1.1-1.85-1.61-.73-.51-1.51-1.01-2.32-1.47s-1.62-.9-2.43-1.29c-.81-.39-1.56-.72-2.25-1.01v.84c0,.13,0,.37.02.73.02.36.03.75.05,1.17s.03.82.05,1.19c.02.37.02.62.02.75v.09c0,.53-.15,1.03-.45,1.5-.3.47-.65.87-1.08,1.22-.42.34-.87.61-1.36.8-.48.19-.91.28-1.29.28-.41,0-.67-.17-.8-.52-.06-.25-.16-.44-.3-.59s-.41-.24-.82-.3c-.28-.06-.69-.13-1.24-.21-.55-.08-1.04-.15-1.47-.21-.06,0-.12-.07-.16-.21-.05-.14-.07-.29-.07-.44,0-.22.03-.43.09-.63s.17-.29.33-.26c.87.09,1.69.17,2.46.23.76.06,1.38.09,1.85.09,1.12,0,1.68-.45,1.68-1.36l-.05-10.01c0-.72-.02-1.33-.05-1.83-.03-.5-.12-1.01-.28-1.54.97.03,1.72.09,2.25.19.53.09.93.2,1.19.3.26.11.42.22.47.33s.07.19.07.26-.06.23-.19.49c-.12.27-.44.48-.94.63v5.47c.16.03.3.06.44.09.14.03.3.08.49.14.87-.84,1.54-1.57,2.01-2.18.47-.61.81-1.11,1.03-1.52.22-.4.35-.72.4-.96.05-.23.07-.4.07-.49.31.06.59.13.82.21.23.08.46.15.68.21-1.15-1.31-2.22-2.73-3.18-4.26h-7.86c-.94,1.5-1.92,2.85-2.95,4.07.87.44,1.56.81,2.06,1.12.5.31.87.59,1.1.84.23.25.38.47.44.65.06.19.09.36.09.52,0,.34-.06.72-.19,1.15s-.36.63-.7.63-.75-.33-1.22-.98c-.31-.44-.68-.89-1.1-1.36-.42-.47-.94-.94-1.57-1.4-1.96,2.03-3.99,3.67-6.08,4.91v1.4c0,.47.02.92.05,1.36.03.44.05.83.05,1.17,0,.97-.2,1.75-.59,2.34-.39.59-.82,1.04-1.29,1.36-.47.31-.91.52-1.33.63-.42.11-.66.16-.73.16-.16,0-.34-.02-.56-.07s-.36-.15-.42-.3c-.12-.22-.26-.42-.4-.61-.14-.19-.33-.34-.56-.44-.23-.11-.55-.2-.94-.28-.39-.08-.91-.15-1.57-.21-.19-.03-.33-.12-.42-.26-.09-.14-.14-.3-.14-.49s.05-.37.16-.54c.11-.17.27-.26.49-.26h.05c.94.15,1.73.25,2.39.28.65.03,1.2.05,1.64.05,1.06,0,1.59-.5,1.59-1.5v-8.94h-4.54c-.13,1.68-.34,3.17-.63,4.47-.3,1.29-.67,2.47-1.12,3.53-.45,1.06-.97,2.04-1.54,2.95-.58.9-1.24,1.81-1.99,2.71-.09.12-.22.19-.37.19-.25,0-.48-.09-.7-.28-.22-.19-.33-.39-.33-.61,0-.06.03-.16.09-.28.72-.94,1.34-1.94,1.87-3.02.53-1.07.97-2.35,1.33-3.84.36-1.48.62-3.24.8-5.26.17-2.03.26-4.49.26-7.39v-3.7c0-1.25-.02-2.44-.05-3.58-.03-1.14-.09-2.18-.16-3.13-.08-.95-.18-1.74-.3-2.36.56.16,1.09.34,1.59.56.5.22,1.03.48,1.59.8h4.12c.06-.06.1-.11.12-.14.02-.03.05-.08.12-.14l.28-.33c.09-.12.23-.27.4-.44.17-.17.35-.26.54-.26.09,0,.27.09.54.26s.55.38.84.63c.3.25.56.51.8.77.23.27.35.49.35.68,0,.25-.12.48-.37.7s-.58.37-.98.47v19.18c1.37-.94,2.7-2.09,3.98-3.46,1.28-1.37,2.46-2.92,3.55-4.63-.97,0-1.99.02-3.06.07s-2.07.1-2.97.16c-.22-.16-.46-.48-.73-.96s-.4-.9-.4-1.24c.9.06,2.06.13,3.46.19s2.95.11,4.63.14c.34-.65.68-1.33,1.01-2.03s.63-1.43.91-2.18h-2.06c-.31,0-.72,0-1.24.02-.51.02-1.05.03-1.61.05-.56.02-1.11.04-1.64.07-.53.03-.97.06-1.31.09-.28-.25-.5-.57-.65-.96-.16-.39-.3-.77-.42-1.15.56.03,1.2.07,1.92.12s1.44.08,2.18.09c.73.02,1.44.03,2.13.05.69.02,1.26.02,1.73.02h1.5c.25-.84.51-1.86.77-3.06.26-1.2.43-2.63.49-4.28.12,0,.4.02.82.07s.87.12,1.33.23c.47.11.89.27,1.26.47s.56.46.56.77c0,.06-.07.23-.21.49-.14.27-.54.43-1.19.49-.16.87-.34,1.71-.54,2.5-.2.8-.43,1.57-.68,2.32h3.42c.03-.06.18-.3.44-.72.27-.42.56-.96.89-1.61.33-.65.65-1.4.96-2.22s.55-1.68.7-2.55c.06,0,.3.06.7.19.4.13.84.28,1.31.47.47.19.9.41,1.29.68.39.27.59.54.59.82,0,.19-.12.37-.35.56-.23.19-.66.28-1.29.28h-.23c-.37.62-.85,1.32-1.43,2.08-.58.77-1.1,1.44-1.57,2.04h2.57c.37-.5.68-.88.91-1.15.23-.27.42-.46.56-.59.14-.12.23-.19.28-.21.05-.02.09-.02.12-.02.12,0,.38.09.77.28s.79.42,1.19.7c.41.28.77.58,1.1.89.33.31.49.59.49.84,0,.22-.07.41-.21.59-.14.17-.4.26-.77.26h-9.03c.28.72.62,1.43,1.01,2.13s.82,1.4,1.29,2.08h4.3c.15-.25.37-.54.63-.89.27-.34.59-.67.96-.98.03-.03.08-.07.14-.12.06-.05.15-.07.28-.07.06,0,.27.09.63.28.36.19.75.42,1.17.7.42.28.8.59,1.15.91s.52.62.52.87c0,.22-.08.42-.23.61-.16.19-.4.28-.75.28h-7.53ZM176.85,19.4v.05c0,.25.02.55.07.91.05.36.07.66.07.91,0,.03,0,.12-.02.26-.02.14-.09.29-.21.44s-.3.3-.54.44c-.23.14-.57.21-1.01.21-.31,0-.59-.07-.82-.21-.23-.14-.35-.41-.35-.82v-.09l.14-2.11h-8.47v.7c0,.22.02.5.05.84.03.25.05.49.07.73.02.23.02.48.02.72s-.09.52-.26.82c-.17.3-.59.44-1.24.44-.34,0-.69-.05-1.05-.16-.36-.11-.54-.38-.54-.82v-.05c0-.22.03-.54.09-.96.06-.42.11-.76.14-1.01.03-.19.05-.4.05-.63v-.63h-2.06c-.47,0-1.24,0-2.32.02-1.08.02-2.22.04-3.44.07-1.22.03-2.38.08-3.49.14-1.11.06-1.94.12-2.5.19-.25-.25-.47-.63-.65-1.15-.19-.51-.28-.97-.28-1.38v-.09c.62.06,1.54.13,2.76.19,1.22.06,2.5.12,3.86.16,1.36.05,2.69.09,4,.12,1.31.03,2.39.05,3.23.05h.89c0-.72-.02-1.36-.07-1.94s-.15-1.36-.3-2.36c.97,0,1.75.02,2.34.07s1.05.12,1.38.21.55.22.65.37.16.34.16.56c0,.25-.14.48-.42.7-.28.22-.64.41-1.08.56v1.83h8.47c0-.37,0-.72-.02-1.03-.02-.31-.04-.62-.07-.94-.03-.31-.07-.65-.12-1.03s-.1-.81-.16-1.31c.97,0,1.75.02,2.34.07s1.05.12,1.38.21.55.22.66.37c.11.16.16.34.16.56,0,.25-.14.48-.42.7-.28.22-.64.41-1.08.56v1.83h7.67c.15-.22.34-.48.56-.77.22-.3.44-.59.68-.87.23-.28.45-.52.65-.72.2-.2.37-.3.49-.3.09,0,.35.13.77.4s.87.58,1.36.96.92.75,1.31,1.12.59.67.59.89c0,.25-.09.48-.28.68-.19.2-.48.3-.89.3h-12.91ZM159.12,34.09h-4.35v4.77c0,.72-.03,1.42-.09,2.11h4.44v-6.88ZM159.12,26.04h-4.35v6.41h4.35v-6.41ZM166,51.87c.03.13.05.28.05.47,0,.25-.04.44-.12.59-.08.14-.16.24-.26.3-.09.06-.17.09-.23.09l-.14.05c-.28,0-.64-.23-1.08-.7-.44-.47-.95-1.32-1.54-2.57.97-.12,1.98-.34,3.04-.65,1.06-.31,2.07-.65,3.02-1.03.95-.37,1.82-.75,2.6-1.12.78-.37,1.36-.66,1.73-.84.03,0,.05,0,.07-.02.02-.02.04-.02.07-.02.15,0,.3.1.42.3s.19.41.19.63c0,.19-.06.33-.19.42-.56.34-1.08.65-1.54.94-.47.28-.98.58-1.54.89-.56.31-1.2.65-1.92,1.01-.72.36-1.59.79-2.62,1.29ZM169.88,30.11c-.25,0-.51-.12-.77-.37-.27-.25-.49-.67-.68-1.26-.16-.5-.32-.93-.49-1.29-.17-.36-.37-.68-.61-.96s-.48-.55-.75-.82l-.91-.91c-.09-.09-.14-.19-.14-.28,0-.19.1-.36.3-.52s.43-.23.68-.23c.16,0,.48.14.98.42.5.28,1.02.65,1.57,1.12.55.47,1.04.99,1.47,1.57.44.58.65,1.16.65,1.76,0,.5-.13.92-.4,1.26-.27.34-.57.51-.91.51ZM174.65,31.84c-.28.75-.58,1.47-.91,2.18-.33.7-.66,1.38-1.01,2.03h5.94c-.75-1.4-1.31-2.81-1.68-4.21h-2.34Z"/>
    <path d="M218.07,44.57c.9,1.5,2.04,2.75,3.42,3.74,1.37,1,2.85,1.81,4.44,2.43,1.59.62,3.21,1.09,4.87,1.4,1.65.31,3.23.53,4.73.66.16,0,.26.06.3.19s.07.26.07.42c0,.19-.03.37-.09.54-.06.17-.16.29-.28.35-.25.06-.58.21-1.01.44-.42.23-.8.55-1.15.96-.06.06-.15.11-.26.14-.11.03-.21.05-.3.05l-.89-.19c-.59-.09-1.37-.28-2.32-.56-.95-.28-2.02-.67-3.2-1.17s-2.38-1.14-3.58-1.92c-1.2-.78-2.35-1.73-3.44-2.85s-2.03-2.43-2.81-3.93c-.53,1.5-1.32,2.82-2.39,3.95-1.06,1.14-2.25,2.13-3.55,2.97-1.31.84-2.67,1.54-4.07,2.11-1.4.56-2.71,1.01-3.91,1.36s-2.22.59-3.06.73c-.84.14-1.36.21-1.54.21-.25,0-.47-.13-.65-.37-.19-.25-.28-.5-.28-.75,0-.28.14-.45.42-.52,2.03-.37,3.93-.88,5.71-1.52,1.78-.64,3.38-1.4,4.8-2.29,1.42-.89,2.63-1.88,3.63-2.97,1-1.09,1.73-2.29,2.2-3.6h-4.54c-.94,0-1.89.02-2.85.05-.97.03-1.89.07-2.78.12-.89.05-1.64.1-2.27.16-.25-.25-.45-.62-.61-1.1-.16-.48-.25-.93-.28-1.33.65.09,1.49.16,2.5.21,1.01.05,2.1.09,3.25.12,1.15.03,2.32.05,3.49.07,1.17.02,2.25.02,3.25.02h1.26c.03-.22.05-.42.07-.61.02-.19.02-.39.02-.61,0-.31,0-.81.02-1.5.02-.69.02-1.31.02-1.87h-1.5c-.53,0-1.36.02-2.48.05-1.12.03-2.32.12-3.6.28-.34-.34-.59-.86-.75-1.54-1.28,1.44-2.53,2.64-3.77,3.63s-2.33,1.78-3.3,2.39-1.75,1.05-2.36,1.31c-.61.27-.94.4-1.01.4-.31,0-.55-.12-.7-.37s-.23-.47-.23-.65c0-.22.09-.37.28-.47,2.34-1.25,4.5-2.84,6.48-4.77,1.98-1.93,3.75-4.07,5.31-6.41-.56,0-1.32,0-2.27.02-.95.02-1.93.04-2.92.07-1,.03-1.96.07-2.88.12-.92.05-1.65.1-2.18.16-.25-.25-.46-.62-.63-1.1-.17-.48-.26-.93-.26-1.33v-.14c.59.06,1.4.13,2.43.19,1.03.06,2.13.12,3.3.16,1.17.05,2.33.09,3.49.12,1.15.03,2.15.05,3,.05.4-.69.79-1.38,1.15-2.08.36-.7.71-1.41,1.05-2.13-.59,0-1.3,0-2.13.02-.83.02-1.67.03-2.53.05-.86.02-1.68.04-2.46.07-.78.03-1.42.08-1.92.14-.31-.25-.57-.59-.77-1.03s-.34-.9-.4-1.4c.53.06,1.24.12,2.13.16.89.05,1.85.09,2.88.12,1.03.03,2.07.06,3.11.09,1.04.03,1.99.05,2.83.05.56-1.28,1.03-2.56,1.4-3.84h-1.45c-.47,0-1.26,0-2.39.02-1.12.02-2.32.04-3.58.07-1.26.03-2.48.07-3.65.12-1.17.05-2.04.1-2.6.16-.25-.25-.46-.63-.63-1.15-.17-.52-.26-.99-.26-1.43.62.06,1.57.13,2.83.19,1.26.06,2.61.12,4.05.16,1.44.05,2.82.09,4.16.12,1.34.03,2.42.05,3.23.05h.75c.03-.12.14-.61.33-1.45.19-.84.4-2.11.65-3.79.94.13,1.71.24,2.34.35.62.11,1.11.22,1.47.33s.61.23.75.37c.14.14.21.3.21.49,0,.03-.02.11-.05.23-.03.12-.1.24-.21.35-.11.11-.28.22-.51.33-.23.11-.57.18-1.01.21-.12.44-.24.87-.35,1.29-.11.42-.23.85-.35,1.29h12.68c.19-.28.47-.67.84-1.17.37-.5.72-.92,1.03-1.26.12-.12.26-.19.42-.19s.45.13.89.4.88.57,1.33.91c.45.34.86.7,1.22,1.08.36.37.54.67.54.89,0,.25-.09.48-.26.7s-.46.33-.87.33h-18.39c-.22.65-.45,1.3-.7,1.94-.25.64-.5,1.29-.75,1.94h11.98c.37-.47.7-.87.98-1.19.28-.33.62-.68,1.03-1.05.12-.12.25-.19.37-.19.09,0,.36.13.8.4.44.27.89.58,1.36.94.47.36.89.73,1.26,1.1s.56.69.56.94-.13.44-.37.56c-.25.13-.55.19-.89.19h-9.31c.44.75.88,1.47,1.33,2.18s.91,1.38,1.38,2.04h6.88s.15-.19.35-.47.43-.59.68-.91c.25-.33.5-.63.75-.91s.44-.42.56-.42c.06,0,.13.02.21.05.08.03.15.06.21.09.06.03.29.18.68.44.39.27.8.57,1.24.91.44.34.83.69,1.19,1.05s.54.65.54.86c0,.25-.09.48-.28.68-.19.2-.48.3-.89.3h-10.76c3.55,4.27,7.64,7.17,12.26,8.7.25.09.37.3.37.61,0,.25-.06.48-.19.68-.12.2-.27.3-.42.3h-.05c-.06,0-.19,0-.37.02-.19.02-.4.05-.63.09-.23.05-.47.12-.7.21-.23.09-.44.2-.63.33-.06.03-.13.08-.19.14-.12.06-.2.09-.23.09-.06,0-.42-.16-1.08-.47-.65-.31-1.51-.88-2.57-1.71-1.06-.83-2.28-1.96-3.67-3.42-1.39-1.45-2.85-3.31-4.37-5.59h-13.38c-.47.72-.96,1.43-1.47,2.13-.52.7-1.07,1.38-1.66,2.04.65.06,1.34.12,2.06.16.72.05,1.41.08,2.08.09.67.02,1.29.03,1.85.05.56.02,1.01.02,1.36.02h6.69l.28-.37c.16-.22.34-.45.56-.7.22-.25.44-.48.68-.7s.41-.33.54-.33c.06,0,.12,0,.16.02.05.02.1.02.16.02.16.06.42.21.8.44.37.23.75.49,1.12.77.37.28.7.57.98.87.28.3.42.55.42.77s-.08.42-.23.61c-.16.19-.41.28-.75.28h-8.37c-.03.69-.06,1.43-.07,2.25-.02.81-.02,1.36-.02,1.64,0,.31-.02.55-.05.7h9.08l.28-.37c.16-.25.35-.51.59-.79.23-.28.47-.54.72-.77.25-.23.45-.35.61-.35.06,0,.12,0,.16.02.05.02.1.02.16.02.09.03.34.17.73.42.39.25.79.52,1.19.82.4.3.77.61,1.1.94s.49.62.49.87c0,.22-.08.42-.23.61-.16.19-.41.28-.75.28h-13.1ZM213.16,26.23c-.34.72-.69,1.42-1.03,2.11-.34.69-.73,1.39-1.17,2.11h11.23c-.44-.69-.85-1.38-1.24-2.08s-.79-1.41-1.19-2.13h-6.6Z"/>
  </g>
  <g>
    <path d="M250,36.83c0-10.24,6.4-20.07,17.31-20.07,11.52,0,17.62,9.37,17.62,19.46s-6.4,20.28-17.26,20.28c-11.57,0-17.67-9.53-17.67-19.66ZM279.91,36.48c0-8.09-3.07-17.26-12.8-17.26-8.45,0-12.09,9.12-12.09,17.26s3.02,17.36,12.8,17.36c8.45,0,12.09-9.22,12.09-17.36Z"/>
    <path d="M321.65,55.52c-.41,0-.67-.26-.67-.67,0-.31.15-.67.51-.97,2.71-.31,2.97-.67,3.12-1.74.26-1.59.31-3.02.31-5.53v-9.32c0-2.46-.15-3.17-2.41-3.17h-8.25c-.46,0-.51.1-.51.46v11.47c0,2.3,0,4.66.1,6.04.1,1.18.77,1.79,3.99,1.79.31.31.41.67.41.92,0,.46-.2.72-.56.72h-11.27c-.46,0-.72-.26-.72-.61,0-.31.26-.77.56-1.02,2.87-.31,3.18-.72,3.28-1.79.15-2,.21-3.89.21-6.04v-11.47c0-.21,0-.36-.05-.46h-10.7c-.51,0-.51.1-.51.46v14.19c0,4.71,0,5.12,4.1,5.12.26.31.36.67.36.92,0,.41-.2.72-.51.72h-11.27c-.51,0-.72-.26-.72-.67,0-.31.2-.72.51-.97,2.92-.31,3.18-.72,3.28-1.79.1-2,.21-3.89.21-6.04v-11.93h-3.79c-.05-.15-.05-.36-.05-.56,0-.72.15-1.54.56-1.79h3.02c.26,0,.26-.05.26-.72v-1.18c0-9.32,5.27-13.67,11.78-13.67,5.84,0,6.86,3.07,6.96,3.33,2.1-2.2,5.02-3.33,8.25-3.33,2.82,0,7.37,1.38,7.37,5.28,0,1.33-.61,2.82-2.46,2.82-1.64,0-2.66-.97-2.66-2.76v-.36c0-.31.05-.56.05-.82,0-1.33-.51-1.74-2.87-1.74-4.46,0-7.02,2.92-7.02,11.32v1.33c0,.46.15.51.51.51h7.32c2,0,4.56-1.08,6.45-1.74.56,0,.92.36.92,1.02v.15c-.05,1.69-.26,5.38-.26,8.24v6.45c0,2.3,0,4.66.15,6.15.15,1.23.72,1.84,3.23,1.84.31.31.41.67.41.97,0,.41-.21.67-.51.67h-10.45ZM309.77,29.87c0-2.61.36-4.92,1.13-6.76-1.33,0-2.25-.92-2.25-2.61,0-1.28-.26-1.89-2.92-1.89-4.51,0-7.07,2.82-7.07,11.11v1.54c0,.46.05.51.46.51h10.34c.31,0,.31-.1.31-.72v-1.18Z"/>
    <path d="M349.05,56.19c-6.4,0-11.88-4.35-11.88-12.85,0-6.3,4.2-13.67,11.98-13.67,6.09,0,9.01,3.48,9.01,5.84,0,1.43-.92,2.82-2.56,2.82-1.49,0-2.71-.72-2.71-2.56,0-.61.1-1.33.1-1.69,0-1.02-1.28-2.25-3.79-2.25-4.71,0-7.63,5.12-7.63,10.55,0,9.22,5.89,10.81,8.81,10.81s5.53-1.54,6.71-3.02c.15-.15.36-.2.56-.2.92,0,1.13,1.08,1.13,1.43-1.54,2.1-4.56,4.81-9.73,4.81Z"/>
    <path d="M362.16,55.47c-.41,0-.61-.31-.61-.61,0-.36.2-.77.46-1.02,2.82-.31,3.12-.67,3.33-1.84.26-1.59.26-3.07.26-5.68v-10.29c0-2.46-.21-2.61-2.61-3.28-.21-.21-.36-.46-.36-.67s.15-.51.36-.67c2.15-.41,4.25-1.13,5.94-1.79.61,0,.92.36.92,1.03v.2c-.05,1.74-.26,6.09-.26,9.01v5.69c0,2.41,0,4.86.15,6.35.15,1.28.72,1.95,3.33,1.95.26.26.41.61.41.87,0,.41-.26.77-.56.77h-10.75ZM364.21,20.29c0-1.84,1.44-3.33,3.18-3.33s3.17,1.49,3.17,3.33-1.43,3.33-3.17,3.33-3.18-1.54-3.18-3.33Z"/>
    <path d="M398.73,51.74c.72,0,1.13.72,1.13,1.02-.82,1.9-2.56,3.17-4.46,3.17-2.71,0-3.69-2.15-3.94-3.99,0-.05,0,0-.05,0-1.28,2.05-3.43,4.25-7.73,4.25-3.23,0-6.91-1.69-6.91-6.5,0-5.68,4.15-6.86,14.14-8.65.2-.1.46-.72.46-3.69,0-3.94-1.74-5.48-4.86-5.48-1.64,0-3.28,1.02-3.28,2.05,0,.2.56.87.56,1.59,0,1.79-1.08,2.66-2.56,2.66-1.74,0-2.61-1.49-2.61-2.71,0-.97.56-1.79.87-2.2,2.51-2.61,5.58-3.64,8.24-3.64,6.25,0,7.78,4.15,7.78,6.91,0,2.56-.26,6.81-.26,12.03,0,3.53.36,4.66,1.38,4.66.51,0,1.08-.26,1.9-1.49h.2ZM391.25,43.18c0-.36-.21-.36-.26-.36-8.09,1.74-9.93,2.71-9.93,6.45s2.51,4.35,3.99,4.35c3.33,0,5.94-2.87,5.99-5.02l.21-5.43Z"/>
    <path d="M402.52,55.47c-.51,0-.67-.31-.67-.61s.2-.72.51-.97c2.71-.36,3.07-.77,3.12-1.9.15-2.1.2-4.05.2-6.2v-23.4c0-2.61-.05-2.61-2.82-3.53-.2-.15-.36-.36-.36-.51,0-.2.15-.46.31-.67,2.36-.51,5.22-1.38,6.5-1.9.41,0,.92.05.92.72v.1c-.31,4.92-.51,9.88-.51,15.16v14.03c0,2.35.05,4.71.15,6.2.1,1.28.77,1.84,3.48,1.84.26.26.41.61.41.87,0,.41-.26.77-.56.77h-10.7Z"/>
  </g>
</svg>